<svg id="Component_2_1" data-name="Component 2 – 1" xmlns="http://www.w3.org/2000/svg" width="375.5" height="190.23" viewBox="0 0 375.5 190.23">
  <rect id="Rectangle_14" data-name="Rectangle 14" width="188" height="375" transform="translate(375) rotate(90)" fill="#ececf4"/>
  <path id="Path_28" data-name="Path 28" d="M219.5,63.222a31.5,31.5,0,0,1,31.5,31.5v31.5H188v-31.5A31.5,31.5,0,0,1,219.5,63.222Z" transform="translate(-0.5)" fill="#111747"/>
  <rect id="Rectangle_15" data-name="Rectangle 15" width="63" height="63" transform="translate(250.5 127.23) rotate(90)" fill="#111747"/>
  <path id="Path_29" data-name="Path 29" d="M281.5,126.222a31.5,31.5,0,0,1,0,63H250V126.6a.376.376,0,0,1,.376-.376Z" transform="translate(-0.5 1.008)" fill="#780406"/>
  <path id="Path_30" data-name="Path 30" d="M32.5,126.222a31.5,31.5,0,0,1,0,63H1v-63Z" transform="translate(-0.5 1.008)" fill="#780406"/>
  <path id="Path_31" data-name="Path 31" d="M185.772,63.222A3.228,3.228,0,0,1,189,66.45v59.772H157.5a31.5,31.5,0,1,1,0-63Z" transform="translate(-0.5)" fill="#78bebd"/>
  <path id="Path_32" data-name="Path 32" d="M189,189.222v-63c17.121,0,31,14.1,31,31.5S206.121,189.222,189,189.222Z" transform="translate(-0.5 1.008)" fill="#b36647" fill-rule="evenodd"/>
  <rect id="Rectangle_16" data-name="Rectangle 16" width="63" height="63" transform="translate(188.5 127.23) rotate(90)" fill="#fdb50d"/>
  <path id="Path_33" data-name="Path 33" d="M127,126.222v63H95.5a31.5,31.5,0,1,1,0-63Z" transform="translate(-0.5 1.008)" fill="#fdb50d"/>
  <rect id="Rectangle_17" data-name="Rectangle 17" width="63" height="63" transform="translate(63) rotate(90)" fill="#111747"/>
  <rect id="Rectangle_18" data-name="Rectangle 18" width="63" height="63" transform="translate(312.5 0.222) rotate(90)" fill="#78bebd"/>
  <rect id="Rectangle_19" data-name="Rectangle 19" width="63" height="63" transform="translate(188.5 0.222) rotate(90)" fill="#b36647"/>
  <rect id="Rectangle_20" data-name="Rectangle 20" width="63" height="63" rx="31.5" transform="translate(250.5 0.222) rotate(90)" fill="#780406"/>
  <path id="Path_34" data-name="Path 34" d="M251,63.222v63c-17.121,0-31-14.1-31-31.5S233.879,63.222,251,63.222Z" transform="translate(-0.5)" fill="#780406" fill-rule="evenodd"/>
  <rect id="Rectangle_21" data-name="Rectangle 21" width="63" height="63" transform="translate(312.5 63.222) rotate(90)" fill="#780406"/>
  <path id="Path_35" data-name="Path 35" d="M313,126.222v-63c17.121,0,31,14.1,31,31.5S330.121,126.222,313,126.222Z" transform="translate(-0.5)" fill="#780406" fill-rule="evenodd"/>
  <path id="Path_37" data-name="Path 37" d="M313,63.222a31,31,0,0,1,31,31A31,31,0,0,1,313,63.222Z" transform="translate(-0.5)" fill="#111747" fill-rule="evenodd"/>
  <path id="Path_38" data-name="Path 38" d="M254,110.722a32.146,32.146,0,0,1,55,0,32.145,32.145,0,0,1-55,0Z" transform="translate(-0.5)" fill="#fff" fill-rule="evenodd"/>
  <path id="Path_39" data-name="Path 39" d="M313,63.222a31,31,0,0,1-31-31A31,31,0,0,1,313,63.222Z" transform="translate(-0.5)" fill="#fdb50d" fill-rule="evenodd"/>
  <path id="Path_40" data-name="Path 40" d="M126,63.222h63c0,17.121-14.1,31-31.5,31S126,80.343,126,63.222Z" transform="translate(-0.5)" fill="#b36647" fill-rule="evenodd"/>
  <path id="Path_41" data-name="Path 41" d="M126,.222a31,31,0,0,1,31,31A31,31,0,0,1,126,.222Z" transform="translate(-0.5)" fill="#78bebd" fill-rule="evenodd"/>
  <rect id="Rectangle_22" data-name="Rectangle 22" width="63" height="63" rx="31.5" transform="translate(375.5 0.222) rotate(90)" fill="#06818e"/>
  <path id="Path_42" data-name="Path 42" d="M252,.222a31,31,0,0,1,31,31A31,31,0,0,1,252,.222Z" transform="translate(-0.5)" fill="#06818e" fill-rule="evenodd"/>
  <path id="Path_43" data-name="Path 43" d="M68,47.472a31.883,31.883,0,0,1,55,0,31.883,31.883,0,0,1-55,0Zm0-31.5a31.883,31.883,0,0,1,55,0,31.779,31.779,0,0,1-27.5,15.75A31.78,31.78,0,0,1,68,15.972Z" transform="translate(-0.5)" fill="#78bebd" fill-rule="evenodd"/>
  <rect id="Rectangle_23" data-name="Rectangle 23" width="63" height="63" rx="31.5" transform="translate(126.5 127.23) rotate(90)" fill="#78bebd"/>
  <rect id="Rectangle_24" data-name="Rectangle 24" width="63" height="63" rx="31.5" transform="translate(156.5 94.222) rotate(90)" fill="#fff"/>
  <rect id="Rectangle_25" data-name="Rectangle 25" width="63" height="63" rx="31.5" transform="translate(188.5 127.23) rotate(90)" fill="#b36647"/>
  <path id="Path_44" data-name="Path 44" d="M235,157.722a15.5,15.5,0,1,1-15.5-15.5A15.5,15.5,0,0,1,235,157.722Z" transform="translate(-0.5 1.077)" fill="#fdb50d" fill-rule="evenodd"/>
  <path id="Path_45" data-name="Path 45" d="M235,31.722a15.5,15.5,0,1,1-15.5-15.5A15.5,15.5,0,0,1,235,31.722Z" transform="translate(-0.5)" fill="#111747" fill-rule="evenodd"/>
  <path id="Path_46" data-name="Path 46" d="M111,94.722a15.5,15.5,0,1,1-15.5-15.5A15.5,15.5,0,0,1,111,94.722Z" transform="translate(-0.5)" fill="#78bebd" fill-rule="evenodd"/>
  <path id="Path_47" data-name="Path 47" d="M111,31.722a15.5,15.5,0,1,1-15.5-15.5A15.5,15.5,0,0,1,111,31.722Z" transform="translate(-0.5)" fill="#b36647" fill-rule="evenodd"/>
  <path id="Path_48" data-name="Path 48" d="M173,94.722a15.5,15.5,0,1,1-15.5-15.5A15.5,15.5,0,0,1,173,94.722Z" transform="translate(-0.5)" fill="#111747" fill-rule="evenodd"/>
  <path id="Path_49" data-name="Path 49" d="M376,126.222v63H344.5a31.5,31.5,0,1,1,0-63Z" transform="translate(-0.5 1.008)" fill="#06818e"/>
  <rect id="Rectangle_26" data-name="Rectangle 26" width="63" height="63" transform="translate(63 63) rotate(90)" fill="#b36647"/>
  <path id="Path_50" data-name="Path 50" d="M63,126.222v-63c17.121,0,31,14.1,31,31.5S80.121,126.222,63,126.222Z" transform="translate(-0.5)" fill="#b36647" fill-rule="evenodd"/>
  <path id="Path_51" data-name="Path 51" d="M33,32.222a31,31,0,0,1,31,31A31,31,0,0,1,33,32.222Z" transform="translate(-0.5)" fill="#78bebd" fill-rule="evenodd"/>
  <path id="Path_53" data-name="Path 53" d="M157,189.222a31.5,31.5,0,0,1-31.5-31.5A31.5,31.5,0,0,1,157,189.222Zm-63-63a31.5,31.5,0,0,1,31.5,31.5A31.5,31.5,0,0,1,94,126.222Zm31.5,31.5a31.5,31.5,0,0,1,31.5-31.5A31.5,31.5,0,0,1,125.5,157.722Zm0,0a31.5,31.5,0,0,1-31.5,31.5A31.5,31.5,0,0,1,125.5,157.722Z" transform="translate(-0.5 1.008)" fill="#78bebd" fill-rule="evenodd"/>
</svg>
